# xmcd
# 
# Track frame offsets:
#     150
#     21927
#     41677
#     65012
#     85447
#     108805
#     127395
#     145445
#     172865
#     189370
#     209007
# 
# Disc length: 3017
# 
# Revision: 7
# Processed by: cddbd v1.5.2PL0 Copyright (c) Steve Scherf et al.
# Submitted via: fre:ac v1.1beta1pre5
# 
DISCID=a50bc70b
DTITLE=Tone-Loc - Loc-ed After Dark
DYEAR=1988
DGENRE=Hip-Hop
TTITLE0=On Fire (Remix)
TTITLE1=Wild Thing
TTITLE2=Loc'ed After Dark
TTITLE3=I Got It Goin' On
TTITLE4=Cutting Rhythms
TTITLE5=Funky Cold Medina
TTITLE6=Next Episode
TTITLE7=Cheeba Cheeba
TTITLE8=Don't Get Close
TTITLE9=Loc'in on the Shaw
TTITLE10=The Homies
EXTD=
EXTT0=T. Smith, M. Dike, M. Ross
EXTT1=T. Smith, M. Dike, M. Ross
EXTT2=T. Smith, M. Dike, M. Ross
EXTT3=T. Smith, M. Dike, M. Ross
EXTT4=T. Smith, M. Dike, M. Ross
EXTT5=T. Smith, M. Dike, M. Ross
EXTT6=T. Smith, M. Dike, M. Ross
EXTT7=T. Smith, M. Dike, M. Ross
EXTT8=T. Smith, M. Dike, M. Ross
EXTT9=T. Smith, M. Dike, M. Ross
EXTT10=T. Smith, M. Dike, M. Ross
PLAYORDER=
